HIERARCHY
ROOT hip
{
  OFFSET 0 0 0
  CHANNELS 6 Xposition Yposition Zposition Zrotation Yrotation Xrotation
  JOINT abdomen
  {
    OFFSET 0 20.6881 -0.73152
    CHANNELS 3 Zrotation Xrotation Yrotation
    JOINT chest
    {
      OFFSET 0 11.7043 -0.48768
      CHANNELS 3 Zrotation Xrotation Yrotation
      JOINT neck
      {
        OFFSET 0 22.1894 -2.19456
        CHANNELS 3 Zrotation Xrotation Yrotation
        JOINT head
        {
          OFFSET -0.24384 7.07133 1.2192
          CHANNELS 3 Zrotation Xrotation Yrotation
          JOINT leftEye
          {
            OFFSET 4.14528 8.04674 8.04672
            CHANNELS 3 Zrotation Xrotation Yrotation
            End Site
            {
              OFFSET 1 0 0
            }
          }
          JOINT rightEye
          {
            OFFSET -3.6576 8.04674 8.04672
            CHANNELS 3 Zrotation Xrotation Yrotation
            End Site
            {
              OFFSET 1 0 0
            }
          }
        }
      }
      JOINT rCollar
      {
        OFFSET -2.68224 19.2634 -4.8768
        CHANNELS 3 Zrotation Xrotation Yrotation
        JOINT rShldr
        {
          OFFSET -8.77824 -1.95073 1.46304
          CHANNELS 3 Zrotation Xrotation Yrotation
          JOINT rForeArm
          {
            OFFSET -28.1742 -1.7115 0.48768
            CHANNELS 3 Zrotation Xrotation Yrotation
            JOINT rHand
            {
              OFFSET -22.5879 0.773209 7.07136
              CHANNELS 3 Zrotation Xrotation Yrotation
              JOINT rThumb1
              {
                OFFSET -1.2192 -0.487915 3.41376
                CHANNELS 3 Zrotation Xrotation Yrotation
                JOINT rThumb2
                {
                  OFFSET -3.37035 -0.52449 3.41376
                  CHANNELS 3 Zrotation Xrotation Yrotation
                  End Site
                  {
                    OFFSET -1.78271 -1.18214 1.43049
                  }
                }
              }
              JOINT rIndex1
              {
                OFFSET -7.75947 0.938293 5.60832
                CHANNELS 3 Zrotation Xrotation Yrotation
                JOINT rIndex2
                {
                  OFFSET -2.54057 -0.884171 1.56538
                  CHANNELS 3 Zrotation Xrotation Yrotation
                  End Site
                  {
                    OFFSET -1.62519 -0.234802 1.16502
                  }
                }
              }
              JOINT rMid1
              {
                OFFSET -8.24714 1.18213 3.41376
                CHANNELS 3 Zrotation Xrotation Yrotation
                JOINT rMid2
                {
                  OFFSET -3.10165 -0.590103 1.0647
                  CHANNELS 3 Zrotation Xrotation Yrotation
                  End Site
                  {
                    OFFSET -2.48547 -0.328903 0.83742
                  }
                }
              }
              JOINT rRing1
              {
                OFFSET -8.82822 0.546677 1.51678
                CHANNELS 3 Zrotation Xrotation Yrotation
                JOINT rRing2
                {
                  OFFSET -2.60934 -0.819778 -0.0198488
                  CHANNELS 3 Zrotation Xrotation Yrotation
                  End Site
                  {
                    OFFSET -2.33842 -0.294052 0.168128
                  }
                }
              }
              JOINT rPinky1
              {
                OFFSET -8.27202 -0.0477905 -0.4584
                CHANNELS 3 Zrotation Xrotation Yrotation
                JOINT rPinky2
                {
                  OFFSET -1.82734 -0.647385 -0.700984
                  CHANNELS 3 Zrotation Xrotation Yrotation
                  End Site
                  {
                    OFFSET -1.69225 -0.51767 -0.607171
                  }
                }
              }
            }
          }
        }
      }
      JOINT lCollar
      {
        OFFSET 2.68224 19.2634 -4.8768
        CHANNELS 3 Zrotation Xrotation Yrotation
        JOINT lShldr
        {
          OFFSET 8.77824 -1.95073 1.46304
          CHANNELS 3 Zrotation Xrotation Yrotation
          JOINT lForeArm
          {
            OFFSET 28.1742 -1.7115 0.48768
            CHANNELS 3 Zrotation Xrotation Yrotation
            JOINT lHand
            {
              OFFSET 22.5879 0.773209 7.07136
              CHANNELS 3 Zrotation Xrotation Yrotation
              JOINT lThumb1
              {
                OFFSET 1.2192 -0.487915 3.41376
                CHANNELS 3 Zrotation Xrotation Yrotation
                JOINT lThumb2
                {
                  OFFSET 3.37035 -0.52449 3.41376
                  CHANNELS 3 Zrotation Xrotation Yrotation
                  End Site
                  {
                    OFFSET 1.78271 -1.18214 1.43049
                  }
                }
              }
              JOINT lIndex1
              {
                OFFSET 7.75947 0.938293 5.60832
                CHANNELS 3 Zrotation Xrotation Yrotation
                JOINT lIndex2
                {
                  OFFSET 2.54057 -0.884171 1.56538
                  CHANNELS 3 Zrotation Xrotation Yrotation
                  End Site
                  {
                    OFFSET 1.62519 -0.234802 1.16502
                  }
                }
              }
              JOINT lMid1
              {
                OFFSET 8.24714 1.18213 3.41376
                CHANNELS 3 Zrotation Xrotation Yrotation
                JOINT lMid2
                {
                  OFFSET 3.10165 -0.590103 1.0647
                  CHANNELS 3 Zrotation Xrotation Yrotation
                  End Site
                  {
                    OFFSET 2.48547 -0.328903 0.83742
                  }
                }
              }
              JOINT lRing1
              {
                OFFSET 8.82822 0.546677 1.51678
                CHANNELS 3 Zrotation Xrotation Yrotation
                JOINT lRing2
                {
                  OFFSET 2.60934 -0.819778 -0.0198488
                  CHANNELS 3 Zrotation Xrotation Yrotation
                  End Site
                  {
                    OFFSET 2.33842 -0.294052 0.168128
                  }
                }
              }
              JOINT lPinky1
              {
                OFFSET 8.27202 -0.0477905 -0.4584
                CHANNELS 3 Zrotation Xrotation Yrotation
                JOINT lPinky2
                {
                  OFFSET 1.82734 -0.647385 -0.700984
                  CHANNELS 3 Zrotation Xrotation Yrotation
                  End Site
                  {
                    OFFSET 1.69225 -0.51767 -0.607171
                  }
                }
              }
            }
          }
        }
      }
    }
  }
  JOINT rButtock
  {
    OFFSET -8.77824 4.35084 1.2192
    CHANNELS 3 Zrotation Xrotation Yrotation
    JOINT rThigh
    {
      OFFSET 0 -1.70687 -2.19456
      CHANNELS 3 Zrotation Xrotation Yrotation
      JOINT rShin
      {
        OFFSET 0 -36.8199 0.73152
        CHANNELS 3 Zrotation Xrotation Yrotation
        JOINT rFoot
        {
          OFFSET 0.73152 -45.1104 -5.12064
          CHANNELS 3 Zrotation Xrotation Yrotation
          End Site
          {
            OFFSET -1.1221 -3.69964 12.103
          }
        }
      }
    }
  }
  JOINT lButtock
  {
    OFFSET 8.77824 4.35084 1.2192
    CHANNELS 3 Zrotation Xrotation Yrotation
    JOINT lThigh
    {
      OFFSET 0 -1.70687 -2.19456
      CHANNELS 3 Zrotation Xrotation Yrotation
      JOINT lShin
      {
        OFFSET 0 -36.8199 0.73152
        CHANNELS 3 Zrotation Xrotation Yrotation
        JOINT lFoot
        {
          OFFSET -0.73152 -45.1104 -5.12064
          CHANNELS 3 Zrotation Xrotation Yrotation
          End Site
          {
            OFFSET 1.1221 -3.69964 12.103
          }
        }
      }
    }
  }
}
MOTION
Frames:	6
Frame Time:	0.00833333
33.4768 66.7266 248.205 0.0 0.0 0.0 1.57503 -0.00270801 0.042896 0.434164 0.00151596 0.075187 -5.42658e-15 -1.59028e-15 -2.48481e-16 -1.5968e-14 3.18055e-15 -8.23093e-16 -0.0 0.0 0.0 -0.0 0.0 0.0 -2.43626e-15 4.46489e-17 4.96962e-17 -5.33401e-14 1.22998e-15 -1.98785e-15 -9.61372e-13 3.25808e-13 -3.18055e-15 -1.103e-11 -1.08884e-13 -5.66139e-13 -2.60194e-11 4.68433e-13 -1.21497e-12 -4.49528e-11 8.0468e-13 -2.11825e-12 -2.60153e-11 4.67144e-13 -1.22769e-12 7.73091 5.47488 0.417314 -2.60189e-11 4.68038e-13 -1.21815e-12 2.90554 0.965183 0.102902 -2.60113e-11 4.68734e-13 -1.22451e-12 10.2786 0.731801 0.0259123 -2.60235e-11 4.7112e-13 -1.22769e-12 2.22167 -0.733487 -0.20892 -2.43414e-15 4.81432e-17 -2.48481e-16 -5.80158e-14 1.03741e-15 -3.57812e-15 -9.6008e-13 -2.56631e-13 -7.31528e-14 -1.10107e-11 4.58646e-13 -4.96167e-13 -2.5976e-11 4.39339e-13 -1.24042e-12 -4.48542e-11 7.60153e-13 -2.12302e-12 -2.598e-11 4.41302e-13 -1.22451e-12 -7.73091 5.47488 -0.417314 -2.59759e-11 4.39215e-13 -1.23406e-12 -2.90554 0.965183 -0.102902 -2.59892e-11 4.3991e-13 -1.23008e-12 -10.2786 0.731801 -0.0259123 -2.59734e-11 4.40507e-13 -1.22769e-12 -2.22167 -0.733487 0.20892 -2.03217e-16 0.0 -3.88251e-19 1.70459 -6.60403 -0.15932 0.00258862 6.39969 0.0733781 -0.527756 0.199736 0.0640588 2.03217e-16 0.0 3.88251e-19 0.69199 -1.9236 0.00558218 0.0091777 -2.07857 0.0757476 0.502997 3.99746 -0.138961
33.3529 63.4683 245.742 179.123 -11.3962 -151.863 1.00607 5.81472 0.805024 0.290461 -3.26347 0.159832 -1.45397 -0.566576 -1.33444 2.21276 -10.9109 -2.20954 -0.0 0.0 0.0 -0.0 0.0 0.0 1.36837e-14 -4.78776e-14 2.07718e-14 20.57 11.6317 -0.434175 -17.0515 -14.5116 14.971 -2.90295e-05 0.0929427 0.0130629 6.587e-10 1.97971e-09 -1.51081e-09 1.13877e-09 3.42174e-09 -2.61196e-09 6.58705e-10 1.97971e-09 -1.51082e-09 7.73091 5.47488 0.417314 6.58701e-10 1.97971e-09 -1.51081e-09 2.90554 0.965183 0.102902 6.58709e-10 1.97971e-09 -1.51082e-09 10.2786 0.731801 0.0259123 6.58695e-10 1.97972e-09 -1.51082e-09 2.22167 -0.733487 -0.20892 1.36648e-14 -4.78693e-14 2.05168e-14 -20.0529 11.9825 3.77118 17.695 -15.2248 -15.0478 -0.0080883 -1.99522 0.279796 -3.39826e-10 -2.27342e-11 1.4118e-09 -5.9571e-10 -4.81326e-11 2.43795e-09 -3.39831e-10 -2.27259e-11 1.41181e-09 -7.73091 5.47488 -0.417314 -3.39826e-10 -2.27351e-11 1.4118e-09 -2.90554 0.965183 -0.102902 -3.39838e-10 -2.27351e-11 1.4118e-09 -10.2786 0.731801 -0.0259123 -3.39824e-10 -2.27346e-11 1.4118e-09 -2.22167 -0.733487 0.20892 -2.03217e-16 0.0 -3.88251e-19 1.26382 -9.52536 -2.50924 0.200897 21.187 0.401112 -0.649689 1.19728 -2.61569 2.03217e-16 0.0 3.88251e-19 0.301143 -21.9491 0.6697 0.0813047 16.1773 -0.132093 0.26383 -1.34204 -1.62473
33.0112 63.4224 244.266 178.381 -11.8286 -151.993 0.263017 11.935 1.67275 0.133449 -6.71236 0.260375 -3.03023 -1.16087 -2.75447 3.57753 -22.3723 -4.83598 -0.0 0.0 0.0 -0.0 0.0 0.0 3.08609e-14 -9.8584e-14 4.02011e-14 42.4557 23.9892 -0.886696 -26.4811 -26.5135 33.7434 -0.000135364 0.173742 0.0244197 1.40767e-09 4.12884e-09 -3.13747e-09 2.43365e-09 7.1363e-09 -5.42424e-09 1.40767e-09 4.12883e-09 -3.13748e-09 7.73091 5.47488 0.417314 1.40767e-09 4.12883e-09 -3.13748e-09 2.90554 0.965183 0.102902 1.40768e-09 4.12883e-09 -3.13748e-09 10.2786 0.731801 0.0259123 1.40766e-09 4.12884e-09 -3.13748e-09 2.22167 -0.733487 -0.20892 3.08202e-14 -9.857e-14 3.9993e-14 -43.1305 24.4725 8.45304 27.2232 -27.722 -34.2104 0.00460488 -4.10649 0.577018 -6.68664e-10 -3.98371e-11 2.94385e-09 -1.17319e-09 -8.72275e-11 5.08365e-09 -6.68669e-10 -3.98216e-11 2.94385e-09 -7.73091 5.47488 -0.417314 -6.68664e-10 -3.98388e-11 2.94384e-09 -2.90554 0.965183 -0.102902 -6.68674e-10 -3.98395e-11 2.94384e-09 -10.2786 0.731801 -0.0259123 -6.68661e-10 -3.98391e-11 2.94384e-09 -2.22167 -0.733487 0.20892 -2.03217e-16 0.0 -3.88251e-19 0.593619 -12.3755 -5.0068 0.184316 36.582 0.86462 -0.666073 2.33154 -5.39337 2.03217e-16 0.0 3.88251e-19 0.61955 -43.1848 1.7748 0.328656 35.4721 -0.418188 -0.290653 -6.91511 -3.22863
32.6606 63.3906 242.854 177.525 -11.9713 -151.907 -0.61527 17.4366 2.42851 0.0324321 -9.79332 0.333199 -4.44104 -1.69604 -4.00487 3.72235 -32.5192 -7.72577 -0.0 0.0 0.0 -0.0 0.0 0.0 4.59237e-14 -1.43722e-13 6.22161e-14 62.3372 34.8861 -1.55533 -28.1416 -30.8857 53.2576 -0.00021423 0.278828 0.039189 2.02814e-09 5.9382e-09 -4.53e-09 3.50622e-09 1.02636e-08 -7.83164e-09 2.02815e-09 5.9382e-09 -4.53e-09 7.73091 5.47488 0.417314 2.02814e-09 5.9382e-09 -4.53001e-09 2.90554 0.965183 0.102902 2.02815e-09 5.9382e-09 -4.53e-09 10.2786 0.731801 0.0259123 2.02813e-09 5.9382e-09 -4.53e-09 2.22167 -0.733487 -0.20892 4.58626e-14 -1.43704e-13 6.20472e-14 -65.7525 35.2522 13.5949 28.5463 -32.1521 -54.4291 0.0344662 -5.9851 0.843479 -9.67527e-10 -6.90813e-11 4.23788e-09 -1.69742e-09 -1.45918e-10 7.3181e-09 -9.67533e-10 -6.90602e-11 4.23788e-09 -7.73091 5.47488 -0.417314 -9.67527e-10 -6.90837e-11 4.23787e-09 -2.90554 0.965183 -0.102902 -9.67536e-10 -6.90851e-11 4.23787e-09 -10.2786 0.731801 -0.0259123 -9.67524e-10 -6.90848e-11 4.23786e-09 -2.22167 -0.733487 0.20892 -2.03217e-16 0.0 -3.88251e-19 -0.359101 -15.2737 -7.36898 -0.179013 50.7528 1.54303 -0.614278 3.16519 -7.98575 2.03217e-16 0.0 3.88251e-19 2.24823 -61.9479 3.9412 0.818655 52.6859 -0.877615 -1.05852 -11.9835 -4.6982
32.2464 63.439 241.277 176.463 -12.3347 -152.063 -1.4508 21.4059 2.80197 0.0450211 -11.9546 0.332139 -5.3823 -2.08697 -4.82971 2.99176 -39.5816 -10.2544 -0.0 0.0 0.0 -0.0 0.0 0.0 5.57005e-14 -1.7494e-13 9.06955e-14 76.9083 42.1317 -2.62112 -27.7533 -29.3019 66.136 -0.000242479 0.44463 0.06249 2.32736e-09 6.89817e-09 -5.33719e-09 4.02303e-09 1.19229e-08 -9.2268e-09 2.32737e-09 6.89817e-09 -5.3372e-09 7.73091 5.47488 0.417314 2.32736e-09 6.89817e-09 -5.3372e-09 2.90554 0.965183 0.102902 2.32737e-09 6.89817e-09 -5.3372e-09 10.2786 0.731801 0.0259123 2.32736e-09 6.89818e-09 -5.33719e-09 2.22167 -0.733487 -0.20892 5.56224e-14 -1.74922e-13 9.05464e-14 -82.7584 42.4958 17.6104 27.958 -30.3668 -67.8345 0.0654929 -7.28264 1.02911 -1.19145e-09 -1.28679e-10 4.93686e-09 -2.0885e-09 -2.53598e-10 8.5244e-09 -1.19146e-09 -1.28656e-10 4.93687e-09 -7.73091 5.47488 -0.417314 -1.19145e-09 -1.28682e-10 4.93686e-09 -2.90554 0.965183 -0.102902 -1.19146e-09 -1.28683e-10 4.93685e-09 -10.2786 0.731801 -0.0259123 -1.19145e-09 -1.28683e-10 4.93685e-09 -2.22167 -0.733487 0.20892 -2.03217e-16 0.0 -3.88251e-19 -1.60684 -18.3562 -9.30589 -0.935061 61.8693 2.46511 -0.622189 3.27601 -10.1018 2.03217e-16 0.0 3.88251e-19 5.87647 -74.5605 8.00349 1.55093 64.6996 -1.56243 -1.76742 -15.8272 -5.728
31.8708 63.5954 239.72 175.751 -12.3359 -151.882 -2.07957 23.2559 2.5693 0.206724 -12.8358 0.223989 -5.64297 -2.28422 -5.0642 2.38571 -42.4977 -11.3637 -0.0 0.0 0.0 -0.0 0.0 0.0 6.16356e-14 -1.90097e-13 1.35122e-13 83.7745 44.2745 -4.0335 -27.673 -27.4888 70.0231 -0.000394328 0.714362 0.100398 2.14574e-09 6.66277e-09 -5.38378e-09 3.70779e-09 1.15161e-08 -9.30662e-09 2.14574e-09 6.66277e-09 -5.38379e-09 7.73091 5.47488 0.417314 2.14574e-09 6.66277e-09 -5.38378e-09 2.90554 0.965183 0.102902 2.14575e-09 6.66277e-09 -5.38378e-09 10.2786 0.731801 0.0259123 2.14573e-09 6.66277e-09 -5.38378e-09 2.22167 -0.733487 -0.20892 6.15462e-14 -1.90086e-13 1.34962e-13 -89.0575 45.4084 18.0136 27.8856 -28.518 -72.0887 0.0796161 -7.7741 1.09985 -1.36733e-09 -2.24267e-10 4.88421e-09 -2.39182e-09 -4.19395e-10 8.4317e-09 -1.36734e-09 -2.24248e-10 4.88421e-09 -7.73091 5.47488 -0.417314 -1.36733e-09 -2.2427e-10 4.8842e-09 -2.90554 0.965183 -0.102902 -1.36734e-09 -2.24271e-10 4.8842e-09 -10.2786 0.731801 -0.0259123 -1.36733e-09 -2.24272e-10 4.88419e-09 -2.22167 -0.733487 0.20892 -2.03217e-16 0.0 -3.88251e-19 -3.139 -21.6952 -10.6227 -1.79867 68.8286 3.35602 -0.830976 2.37046 -11.5688 2.03217e-16 0.0 3.88251e-19 7.5113 -78.684 10.1615 2.06469 69.4267 -2.06257 -2.1138 -17.9751 -6.06428
